<svg xmlns="http://www.w3.org/2000/svg" xmlns:xlink="http://www.w3.org/1999/xlink" width="1192" zoomAndPan="magnify" viewBox="0 0 894 287.25" height="383" preserveAspectRatio="xMidYMid meet" version="1.0"><defs><clipPath id="eff4892818"><path d="M 5.511719 5.285156 L 888.207031 5.285156 L 888.207031 281.316406 L 5.511719 281.316406 Z M 5.511719 5.285156 " clip-rule="nonzero"/></clipPath></defs><g clip-path="url(#eff4892818)"><path fill="#696969" d="M 470.859375 74.699219 C 470.859375 84.632812 462.859375 92.628906 452.929688 92.628906 C 443 92.628906 435 84.632812 435 74.699219 C 435 64.769531 442.722656 56.769531 452.929688 56.769531 C 463.136719 57.046875 470.859375 65.046875 470.859375 74.699219 Z M 396.933594 110.835938 C 396.933594 112.492188 396.933594 115.25 396.933594 115.25 C 396.933594 115.25 388.382812 104.214844 370.175781 104.214844 C 340.109375 104.214844 316.664062 127.109375 316.664062 158.832031 C 316.664062 190.277344 339.832031 213.449219 370.175781 213.449219 C 388.65625 213.449219 396.933594 202.140625 396.933594 202.140625 L 396.933594 206.828125 C 396.933594 209.035156 398.589844 210.691406 400.796875 210.691406 L 423.136719 210.691406 L 423.136719 106.972656 C 423.136719 106.972656 402.726562 106.972656 400.796875 106.972656 C 398.589844 106.972656 396.933594 108.90625 396.933594 110.835938 Z M 396.933594 177.3125 C 392.796875 183.382812 384.519531 188.625 374.589844 188.625 C 356.9375 188.625 343.417969 177.589844 343.417969 158.832031 C 343.417969 140.074219 356.9375 129.042969 374.589844 129.042969 C 384.246094 129.042969 393.070312 134.558594 396.933594 140.351562 Z M 439.6875 106.972656 L 466.171875 106.972656 L 466.171875 210.691406 L 439.6875 210.691406 Z M 835.25 104.214844 C 817.042969 104.214844 808.492188 115.25 808.492188 115.25 L 808.492188 57.046875 L 782.011719 57.046875 L 782.011719 210.691406 C 782.011719 210.691406 802.421875 210.691406 804.355469 210.691406 C 806.5625 210.691406 808.214844 208.761719 808.214844 206.828125 L 808.214844 202.140625 C 808.214844 202.140625 816.765625 213.449219 834.972656 213.449219 C 865.039062 213.449219 888.488281 190.277344 888.488281 158.832031 C 888.488281 127.386719 865.039062 104.214844 835.25 104.214844 Z M 830.835938 188.347656 C 820.628906 188.347656 812.628906 183.105469 808.492188 177.039062 L 808.492188 140.074219 C 812.628906 134.558594 821.457031 128.765625 830.835938 128.765625 C 848.488281 128.765625 862.003906 139.800781 862.003906 158.558594 C 862.003906 177.3125 848.488281 188.347656 830.835938 188.347656 Z M 768.21875 149.179688 L 768.21875 210.96875 L 741.738281 210.96875 L 741.738281 152.210938 C 741.738281 135.109375 736.222656 128.214844 721.324219 128.214844 C 713.324219 128.214844 705.050781 132.351562 699.808594 138.421875 L 699.808594 210.691406 L 673.328125 210.691406 L 673.328125 106.972656 L 694.292969 106.972656 C 696.5 106.972656 698.15625 108.90625 698.15625 110.835938 L 698.15625 115.25 C 705.878906 107.25 716.085938 104.214844 726.289062 104.214844 C 737.875 104.214844 747.53125 107.527344 755.253906 114.144531 C 764.632812 121.871094 768.21875 131.800781 768.21875 149.179688 Z M 609.058594 104.214844 C 590.851562 104.214844 582.300781 115.25 582.300781 115.25 L 582.300781 57.046875 L 555.820312 57.046875 L 555.820312 210.691406 C 555.820312 210.691406 576.230469 210.691406 578.164062 210.691406 C 580.371094 210.691406 582.023438 208.761719 582.023438 206.828125 L 582.023438 202.140625 C 582.023438 202.140625 590.574219 213.449219 608.78125 213.449219 C 638.847656 213.449219 662.292969 190.277344 662.292969 158.832031 C 662.570312 127.386719 639.125 104.214844 609.058594 104.214844 Z M 604.644531 188.347656 C 594.4375 188.347656 586.4375 183.105469 582.300781 177.039062 L 582.300781 140.074219 C 586.4375 134.558594 595.265625 128.765625 604.644531 128.765625 C 622.296875 128.765625 635.8125 139.800781 635.8125 158.558594 C 635.8125 177.3125 622.296875 188.347656 604.644531 188.347656 Z M 532.925781 104.214844 C 540.921875 104.214844 545.0625 105.59375 545.0625 105.59375 L 545.0625 130.144531 C 545.0625 130.144531 522.992188 122.699219 509.203125 138.421875 L 509.203125 210.96875 L 482.71875 210.96875 L 482.71875 106.972656 C 482.71875 106.972656 503.132812 106.972656 505.0625 106.972656 C 507.269531 106.972656 508.925781 108.90625 508.925781 110.835938 L 508.925781 115.25 C 513.890625 109.457031 524.648438 104.214844 532.925781 104.214844 Z M 257.90625 201.3125 C 256.527344 198.003906 255.148438 194.417969 253.769531 191.382812 C 251.5625 186.417969 249.355469 181.726562 247.425781 177.3125 L 247.148438 177.039062 C 228.117188 135.660156 207.703125 93.734375 186.1875 52.355469 L 185.359375 50.703125 C 183.15625 46.566406 180.949219 42.152344 178.742188 37.738281 C 175.984375 32.773438 173.222656 27.53125 168.808594 22.566406 C 159.984375 11.53125 147.292969 5.464844 133.777344 5.464844 C 119.984375 5.464844 107.574219 11.53125 98.46875 22.015625 C 94.332031 26.980469 91.296875 32.21875 88.539062 37.1875 C 86.332031 41.597656 84.125 46.011719 81.917969 50.152344 L 81.09375 51.804688 C 59.851562 93.183594 39.164062 135.109375 20.128906 176.488281 L 19.855469 177.039062 C 17.925781 181.453125 15.71875 186.140625 13.511719 191.105469 C 12.132812 194.140625 10.753906 197.449219 9.371094 201.035156 C 5.785156 211.242188 4.683594 220.898438 6.0625 230.828125 C 9.097656 251.515625 22.890625 268.894531 41.921875 276.617188 C 49.09375 279.652344 56.542969 281.03125 64.265625 281.03125 C 66.472656 281.03125 69.230469 280.753906 71.4375 280.480469 C 80.539062 279.375 89.917969 276.34375 99.023438 271.101562 C 110.332031 264.757812 121.089844 255.652344 133.226562 242.414062 C 145.363281 255.652344 156.398438 264.757812 167.429688 271.101562 C 176.535156 276.34375 185.914062 279.375 195.015625 280.480469 C 197.222656 280.753906 199.980469 281.03125 202.1875 281.03125 C 209.910156 281.03125 217.636719 279.652344 224.53125 276.617188 C 243.839844 268.894531 257.355469 251.242188 260.390625 230.828125 C 262.597656 221.171875 261.492188 211.519531 257.90625 201.3125 Z M 133.503906 215.65625 C 118.605469 196.898438 108.953125 179.246094 105.640625 164.351562 C 104.261719 158.003906 103.988281 152.488281 104.816406 147.523438 C 105.367188 143.109375 107.023438 139.246094 109.226562 135.9375 C 114.46875 128.488281 123.296875 123.800781 133.503906 123.800781 C 143.707031 123.800781 152.8125 128.214844 157.777344 135.9375 C 159.984375 139.246094 161.636719 143.109375 162.191406 147.523438 C 163.019531 152.488281 162.742188 158.28125 161.363281 164.351562 C 158.050781 178.96875 148.398438 196.625 133.503906 215.65625 Z M 243.5625 228.621094 C 241.632812 242.964844 231.980469 255.378906 218.460938 260.894531 C 211.84375 263.652344 204.671875 264.480469 197.5 263.652344 C 190.601562 262.824219 183.707031 260.621094 176.535156 256.480469 C 166.605469 250.964844 156.671875 242.414062 145.089844 229.726562 C 163.292969 207.382812 174.328125 186.96875 178.464844 168.761719 C 180.394531 160.210938 180.671875 152.488281 179.84375 145.316406 C 178.742188 138.421875 176.257812 132.074219 172.398438 126.558594 C 163.84375 114.144531 149.5 106.972656 133.503906 106.972656 C 117.503906 106.972656 103.160156 114.421875 94.609375 126.558594 C 90.746094 132.074219 88.265625 138.421875 87.160156 145.316406 C 86.058594 152.488281 86.332031 160.488281 88.539062 168.761719 C 92.675781 186.96875 103.988281 207.65625 121.917969 230 C 110.609375 242.6875 100.402344 251.242188 90.472656 256.757812 C 83.300781 260.894531 76.402344 263.101562 69.507812 263.929688 C 62.058594 264.757812 54.886719 263.652344 48.542969 261.171875 C 35.027344 255.652344 25.371094 243.242188 23.441406 228.898438 C 22.613281 222 23.164062 215.105469 25.921875 207.382812 C 26.75 204.621094 28.128906 201.863281 29.507812 198.554688 C 31.441406 194.140625 33.648438 189.453125 35.855469 184.761719 L 36.128906 184.210938 C 55.164062 143.109375 75.574219 101.179688 96.816406 60.355469 L 97.644531 58.703125 C 99.847656 54.5625 102.054688 50.152344 104.261719 46.011719 C 106.46875 41.597656 108.953125 37.460938 111.988281 33.875 C 117.78125 27.253906 125.503906 23.667969 134.054688 23.667969 C 142.605469 23.667969 150.328125 27.253906 156.121094 33.875 C 159.15625 37.460938 161.636719 41.597656 163.84375 46.011719 C 166.050781 50.152344 168.257812 54.5625 170.464844 58.703125 L 171.292969 60.355469 C 192.257812 101.457031 212.667969 143.386719 231.703125 184.488281 L 231.703125 184.761719 C 233.910156 189.175781 235.839844 194.140625 238.046875 198.554688 C 239.425781 201.863281 240.804688 204.621094 241.632812 207.382812 C 243.839844 214.554688 244.667969 221.449219 243.5625 228.621094 Z M 243.5625 228.621094 " fill-opacity="1" fill-rule="nonzero"/></g></svg>