<svg xmlns="http://www.w3.org/2000/svg" xmlns:xlink="http://www.w3.org/1999/xlink" width="1900" zoomAndPan="magnify" viewBox="0 0 1425 284.999983" height="380" preserveAspectRatio="xMidYMid meet" version="1.0"><defs><clipPath id="903064a9e7"><path d="M 757 81 L 884 81 L 884 263.007812 L 757 263.007812 Z M 757 81 " clip-rule="nonzero"/></clipPath><clipPath id="f259a806cb"><path d="M 9.746094 35 L 133 35 L 133 213 L 9.746094 213 Z M 9.746094 35 " clip-rule="nonzero"/></clipPath><clipPath id="b72001f378"><path d="M 1221 82 L 1415.554688 82 L 1415.554688 214 L 1221 214 Z M 1221 82 " clip-rule="nonzero"/></clipPath></defs><path fill="#4b4b4b" d="M 561.039062 50.894531 C 561.039062 39.054688 570.597656 29.476562 582.359375 29.476562 C 594.164062 29.476562 603.757812 39.054688 603.757812 50.894531 C 603.757812 62.71875 594.164062 72.304688 582.359375 72.304688 C 570.597656 72.304688 561.039062 62.71875 561.039062 50.894531 " fill-opacity="1" fill-rule="nonzero"/><path fill="#696969" d="M 898.085938 193.347656 C 898.085938 181.503906 907.636719 171.917969 919.402344 171.917969 C 931.203125 171.917969 940.792969 181.503906 940.792969 193.347656 C 940.792969 205.164062 931.203125 214.761719 919.402344 214.761719 C 907.636719 214.761719 898.085938 205.164062 898.085938 193.347656 " fill-opacity="1" fill-rule="nonzero"/><path fill="#4b4b4b" d="M 210.449219 184.089844 C 192.054688 184.089844 179.269531 169.480469 179.269531 148.601562 C 179.269531 127.726562 192.050781 113.125 210.449219 113.125 C 228.953125 113.125 241.878906 127.726562 241.878906 148.601562 C 241.878906 169.808594 229.222656 184.089844 210.449219 184.089844 Z M 210.449219 81.933594 C 171.527344 81.933594 143.28125 109.980469 143.28125 148.601562 C 143.28125 187.222656 171.527344 215.261719 210.449219 215.261719 C 249.519531 215.261719 277.882812 187.222656 277.882812 148.601562 C 277.882812 109.980469 249.519531 81.933594 210.449219 81.933594 " fill-opacity="1" fill-rule="nonzero"/><path fill="#4b4b4b" d="M 519.667969 151.933594 C 518.15625 149.089844 516.417969 146.675781 514.570312 144.765625 L 513.394531 143.515625 L 514.632812 142.328125 C 516.417969 140.445312 518.246094 138.210938 520.007812 135.625 L 554.355469 84.5625 L 512.660156 84.5625 L 486.851562 124.503906 C 485.390625 126.644531 482.441406 127.726562 478.023438 127.726562 L 472.144531 127.726562 L 472.144531 52.214844 C 472.144531 37.109375 462.734375 35.054688 452.570312 35.054688 L 435.167969 35.054688 L 435.195312 213.300781 L 472.144531 213.300781 L 472.144531 159.832031 L 475.605469 159.832031 C 479.816406 159.832031 482.683594 160.320312 484 162.609375 L 504.382812 201.078125 C 510.074219 211.515625 515.75 213.300781 526.421875 213.300781 L 554.738281 213.300781 L 533.648438 178.417969 L 519.667969 151.933594 " fill-opacity="1" fill-rule="nonzero"/><path fill="#4b4b4b" d="M 699.03125 81.648438 C 680.238281 81.648438 668.246094 90 661.527344 97.058594 L 659.285156 99.328125 L 658.492188 96.242188 C 656.515625 88.679688 649.863281 84.515625 639.851562 84.515625 L 623.292969 84.515625 L 623.394531 213.253906 L 660.089844 213.253906 L 660.089844 153.917969 C 660.089844 148.117188 660.84375 143.085938 662.378906 138.492188 C 666.464844 124.589844 677.859375 115.949219 692.097656 115.949219 C 703.554688 115.949219 708.03125 121.992188 708.03125 137.613281 L 708.03125 193.683594 C 708.03125 207.015625 714.195312 213.253906 727.539062 213.253906 L 745 213.253906 L 744.941406 131.375 C 744.941406 98.84375 729.074219 81.648438 699.039062 81.648438 " fill-opacity="1" fill-rule="nonzero"/><path fill="#4b4b4b" d="M 582.847656 84.574219 L 565.453125 84.574219 L 565.574219 184.113281 L 565.5625 184.113281 L 565.5625 213.285156 L 584.128906 213.285156 C 584.359375 213.285156 584.546875 213.308594 584.78125 213.308594 L 593.429688 213.285156 L 602.039062 213.285156 L 602.039062 213.234375 L 602.097656 213.234375 L 602.171875 104.117188 C 602.171875 90.953125 595.878906 84.574219 582.859375 84.574219 " fill-opacity="1" fill-rule="nonzero"/><path fill="#4b4b4b" d="M 354.589844 184.089844 C 336.191406 184.089844 323.382812 169.480469 323.382812 148.601562 C 323.382812 127.726562 336.191406 113.125 354.589844 113.125 C 373.054688 113.125 386.015625 127.726562 386.015625 148.601562 C 386.015625 169.808594 373.363281 184.089844 354.589844 184.089844 Z M 354.589844 81.933594 C 315.625 81.933594 287.375 109.980469 287.375 148.601562 C 287.375 187.222656 315.625 215.261719 354.589844 215.261719 C 393.617188 215.261719 422.027344 187.222656 422.027344 148.601562 C 422.027344 109.980469 393.617188 81.933594 354.589844 81.933594 " fill-opacity="1" fill-rule="nonzero"/><path fill="#696969" d="M 1141.164062 184.089844 C 1122.777344 184.089844 1109.957031 169.480469 1109.957031 148.601562 C 1109.957031 127.726562 1122.777344 113.125 1141.164062 113.125 C 1159.632812 113.125 1172.597656 127.726562 1172.597656 148.601562 C 1172.597656 169.808594 1159.941406 184.089844 1141.164062 184.089844 Z M 1141.164062 81.933594 C 1102.210938 81.933594 1073.960938 109.980469 1073.960938 148.601562 C 1073.960938 187.222656 1102.210938 215.261719 1141.164062 215.261719 C 1180.195312 215.261719 1208.601562 187.222656 1208.601562 148.601562 C 1208.601562 109.980469 1180.195312 81.933594 1141.164062 81.933594 " fill-opacity="1" fill-rule="nonzero"/><g clip-path="url(#903064a9e7)"><path fill="#4b4b4b" d="M 822.316406 178.425781 C 802.257812 178.425781 795.113281 160.921875 795.113281 144.519531 C 795.113281 137.292969 796.941406 113.738281 820.390625 113.738281 C 832.042969 113.738281 847.570312 117.078125 847.570312 145.734375 C 847.570312 172.757812 833.828125 178.425781 822.316406 178.425781 Z M 866.625 84.226562 C 859.660156 84.226562 854.300781 87.003906 851.617188 92.074219 L 850.601562 94.042969 L 848.902344 92.566406 C 842.976562 87.441406 832.355469 81.359375 815.109375 81.359375 C 780.796875 81.359375 757.695312 107.132812 757.695312 145.484375 C 757.695312 183.792969 781.597656 210.5625 815.800781 210.5625 C 827.484375 210.5625 836.714844 207.839844 844.035156 202.296875 L 846.867188 200.167969 L 846.867188 203.746094 C 846.867188 220.941406 835.746094 230.425781 815.589844 230.425781 C 805.792969 230.425781 796.878906 228.042969 790.914062 225.878906 C 783.128906 223.53125 778.566406 225.472656 775.410156 233.285156 L 772.496094 240.492188 L 768.375 251.015625 L 770.929688 252.378906 C 783.828125 259.222656 800.621094 263.308594 815.800781 263.308594 C 847.054688 263.308594 883.542969 247.3125 883.542969 202.296875 L 883.679688 84.226562 L 866.628906 84.226562 " fill-opacity="1" fill-rule="nonzero"/></g><g clip-path="url(#f259a806cb)"><path fill="#4b4b4b" d="M 73.785156 182.613281 L 43.914062 182.585938 L 43.914062 146.871094 C 43.914062 139.238281 46.875 135.269531 53.414062 134.355469 L 73.785156 134.355469 C 88.328125 134.355469 97.722656 143.527344 97.730469 158.359375 C 97.722656 173.585938 88.558594 182.605469 73.785156 182.617188 Z M 43.914062 86.273438 L 43.914062 76.875 C 43.914062 68.648438 47.394531 64.734375 55.035156 64.230469 L 70.320312 64.230469 C 83.429688 64.230469 91.28125 72.078125 91.28125 85.203125 C 91.28125 95.210938 85.90625 106.886719 70.804688 106.886719 L 43.917969 106.886719 L 43.917969 86.273438 Z M 111.9375 121.914062 L 106.539062 118.882812 L 111.25 114.851562 C 116.734375 110.136719 125.925781 99.539062 125.925781 81.230469 C 125.925781 53.214844 104.191406 35.132812 70.558594 35.132812 L 32.175781 35.132812 L 32.175781 35.121094 L 27.808594 35.121094 C 17.835938 35.488281 9.855469 43.597656 9.746094 53.628906 L 9.746094 212.648438 L 27.359375 212.648438 C 27.40625 212.660156 27.421875 212.648438 27.433594 212.660156 L 71.316406 212.648438 C 108.707031 212.648438 132.839844 192.296875 132.839844 160.777344 C 132.839844 143.804688 125.039062 129.296875 111.929688 121.914062 " fill-opacity="1" fill-rule="nonzero"/></g><g clip-path="url(#b72001f378)"><path fill="#696969" d="M 1372.523438 82.066406 C 1357.300781 82.066406 1342.582031 89.195312 1333.132812 101.152344 L 1330.472656 104.523438 L 1328.386719 100.753906 C 1321.589844 88.359375 1309.890625 82.066406 1293.625 82.066406 C 1276.570312 82.066406 1265.128906 91.582031 1259.816406 97.242188 L 1256.339844 101.007812 L 1255 96.054688 C 1253.058594 88.921875 1246.710938 84.996094 1237.09375 84.996094 L 1221.671875 84.996094 L 1221.519531 213.234375 L 1256.566406 213.234375 L 1256.566406 156.625 C 1256.566406 151.667969 1257.179688 146.757812 1258.421875 141.628906 C 1261.773438 127.949219 1270.964844 113.238281 1286.417969 114.710938 C 1295.949219 115.621094 1300.601562 122.988281 1300.601562 137.210938 L 1300.601562 213.234375 L 1335.894531 213.234375 L 1335.894531 156.625 C 1335.894531 150.429688 1336.472656 145.789062 1337.871094 141.136719 C 1340.710938 128.078125 1350.308594 114.6875 1365.21875 114.6875 C 1376.007812 114.6875 1380 120.800781 1380 137.210938 L 1380 194.484375 C 1380 207.441406 1385.777344 213.234375 1398.726562 213.234375 L 1415.21875 213.234375 L 1415.25 131.367188 C 1415.25 98.660156 1400.851562 82.066406 1372.519531 82.066406 " fill-opacity="1" fill-rule="nonzero"/></g><path fill="#696969" d="M 1053.667969 168.707031 C 1053.5625 168.835938 1038.484375 184.734375 1018.628906 184.734375 C 1000.542969 184.734375 982.265625 173.636719 982.265625 148.859375 C 982.265625 127.46875 996.4375 112.515625 1016.71875 112.515625 C 1023.304688 112.515625 1030.792969 114.875 1031.964844 118.84375 L 1032.140625 119.515625 C 1034.839844 128.511719 1043.015625 128.996094 1044.625 128.996094 L 1063.824219 129.015625 L 1063.824219 112.234375 C 1063.824219 90.09375 1035.664062 82.066406 1016.714844 82.066406 C 976.195312 82.066406 946.792969 110.277344 946.792969 149.128906 C 946.792969 187.964844 975.875 216.136719 1015.976562 216.136719 C 1050.765625 216.136719 1069.683594 193.269531 1069.863281 193.039062 L 1070.871094 191.800781 L 1055.667969 166.578125 L 1053.667969 168.710938 " fill-opacity="1" fill-rule="nonzero"/></svg>