<svg xmlns="http://www.w3.org/2000/svg" xmlns:xlink="http://www.w3.org/1999/xlink" width="1450" zoomAndPan="magnify" viewBox="0 0 1087.5 287.25" height="383" preserveAspectRatio="xMidYMid meet" version="1.0"><defs><filter x="0%" y="0%" width="100%" height="100%" id="89cda80ada"><feColorMatrix values="0 0 0 0 1 0 0 0 0 1 0 0 0 0 1 0 0 0 1 0" color-interpolation-filters="sRGB"/></filter><mask id="590a334242"><g filter="url(#89cda80ada)"><rect x="-108.75" width="1305" fill="#000000" y="-28.725" height="344.7" fill-opacity="0.3"/></g></mask><clipPath id="ee0208fdcd"><path d="M 1 0.503906 L 270 0.503906 L 270 275 L 1 275 Z M 1 0.503906 " clip-rule="nonzero"/></clipPath><clipPath id="0526521680"><rect x="0" width="271" y="0" height="276"/></clipPath></defs><g mask="url(#590a334242)"><g transform="matrix(1, 0, 0, 1, 5, 5)"><g clip-path="url(#0526521680)"><g clip-path="url(#ee0208fdcd)"><path fill="#696969" d="M 269.882812 137.738281 C 269.882812 207.667969 217.550781 265.386719 149.910156 273.851562 C 144.269531 274.558594 138.53125 274.925781 132.699219 274.925781 L 1.082031 274.925781 L 1.082031 0.554688 L 132.699219 0.554688 C 138.53125 0.554688 144.269531 0.917969 149.910156 1.628906 C 217.550781 10.089844 269.882812 67.808594 269.882812 137.738281 Z M 269.882812 137.738281 " fill-opacity="1" fill-rule="nonzero"/></g></g></g></g><path fill="#696969" d="M 142.761719 142.738281 C 142.761719 237.402344 62.554688 279.925781 6.082031 279.925781 L 6.082031 5.554688 C 62.554688 5.554688 142.761719 48.078125 142.761719 142.738281 Z M 142.761719 142.738281 " fill-opacity="1" fill-rule="nonzero"/><path fill="#696969" d="M 422.496094 50.507812 L 449.164062 50.507812 L 449.164062 197.816406 L 422.496094 197.816406 L 422.496094 186.578125 C 417.292969 191.527344 412.070312 195.09375 406.835938 197.269531 C 401.601562 199.445312 395.921875 200.539062 389.804688 200.539062 C 376.078125 200.539062 364.210938 195.214844 354.1875 184.574219 C 344.183594 173.933594 339.171875 160.691406 339.171875 144.867188 C 339.171875 128.453125 344.023438 115.007812 353.710938 104.519531 C 363.402344 94.03125 375.175781 88.796875 389.035156 88.796875 C 395.414062 88.796875 401.386719 90 406.988281 92.410156 C 412.585938 94.820312 417.75 98.433594 422.496094 103.253906 Z M 394.460938 113.417969 C 386.222656 113.417969 379.367188 116.335938 373.921875 122.15625 C 368.472656 127.988281 365.738281 135.460938 365.738281 144.570312 C 365.738281 153.753906 368.515625 161.308594 374.0625 167.230469 C 379.609375 173.152344 386.445312 176.121094 394.554688 176.121094 C 402.925781 176.121094 409.871094 173.203125 415.390625 167.382812 C 420.90625 161.550781 423.660156 153.917969 423.660156 144.480469 C 423.660156 135.238281 420.898438 127.746094 415.390625 122.015625 C 409.871094 116.285156 402.894531 113.417969 394.460938 113.417969 Z M 394.460938 113.417969 " fill-opacity="1" fill-rule="nonzero"/><path fill="#696969" d="M 579.558594 152.386719 L 493.894531 152.386719 C 495.128906 159.941406 498.441406 165.953125 503.804688 170.410156 C 509.183594 174.875 516.035156 177.101562 524.367188 177.101562 C 534.332031 177.101562 542.894531 173.617188 550.054688 166.652344 L 572.519531 177.203125 C 566.921875 185.148438 560.210938 191.023438 552.394531 194.828125 C 544.578125 198.636719 535.304688 200.539062 524.550781 200.539062 C 507.875 200.539062 494.300781 195.285156 483.820312 184.765625 C 473.332031 174.246094 468.097656 161.074219 468.097656 145.25 C 468.097656 129.03125 473.320312 115.574219 483.78125 104.855469 C 494.226562 94.140625 507.339844 88.785156 523.09375 88.785156 C 539.828125 88.785156 553.4375 94.140625 563.925781 104.855469 C 574.414062 115.566406 579.648438 129.710938 579.648438 147.296875 Z M 552.890625 131.390625 C 551.128906 125.46875 547.65625 120.648438 542.472656 116.933594 C 537.289062 113.214844 531.261719 111.363281 524.417969 111.363281 C 516.988281 111.363281 510.457031 113.449219 504.847656 117.609375 C 501.324219 120.210938 498.066406 124.808594 495.070312 131.378906 L 552.890625 131.378906 Z M 552.890625 131.390625 " fill-opacity="1" fill-rule="nonzero"/><path fill="#696969" d="M 705.179688 113.023438 L 682.976562 125.234375 C 678.804688 120.871094 674.675781 117.84375 670.605469 116.152344 C 666.523438 114.460938 661.757812 113.613281 656.28125 113.613281 C 646.308594 113.613281 638.238281 116.589844 632.070312 122.53125 C 625.90625 128.484375 622.828125 136.109375 622.828125 145.402344 C 622.828125 154.441406 625.792969 161.824219 631.726562 167.542969 C 637.660156 173.265625 645.457031 176.128906 655.105469 176.128906 C 667.042969 176.128906 676.324219 172.058594 682.976562 163.917969 L 704.003906 178.316406 C 692.605469 193.136719 676.527344 200.550781 655.753906 200.550781 C 637.0625 200.550781 622.421875 195.011719 611.84375 183.945312 C 601.261719 172.878906 595.96875 159.921875 595.96875 145.066406 C 595.96875 134.78125 598.539062 125.304688 603.683594 116.636719 C 608.828125 107.980469 616.003906 101.167969 625.21875 96.226562 C 634.429688 91.277344 644.738281 88.808594 656.136719 88.808594 C 666.6875 88.808594 676.164062 90.902344 684.566406 95.105469 C 692.96875 99.296875 699.835938 105.277344 705.179688 113.023438 Z M 705.179688 113.023438 " fill-opacity="1" fill-rule="nonzero"/><path fill="#696969" d="M 770.015625 88.796875 C 780.050781 88.796875 789.476562 91.308594 798.292969 96.320312 C 807.121094 101.332031 814.007812 108.132812 818.957031 116.730469 C 823.910156 125.324219 826.378906 134.609375 826.378906 144.570312 C 826.378906 154.605469 823.890625 163.980469 818.90625 172.707031 C 813.925781 181.433594 807.132812 188.257812 798.539062 193.167969 C 789.941406 198.089844 780.464844 200.539062 770.109375 200.539062 C 754.871094 200.539062 741.859375 195.121094 731.089844 184.28125 C 720.304688 173.4375 714.921875 160.265625 714.921875 144.765625 C 714.921875 128.160156 721.003906 114.320312 733.183594 103.253906 C 743.867188 93.617188 756.144531 88.796875 770.015625 88.796875 Z M 770.453125 113.90625 C 762.171875 113.90625 755.265625 116.789062 749.757812 122.550781 C 744.238281 128.3125 741.484375 135.691406 741.484375 144.671875 C 741.484375 153.917969 744.210938 161.410156 749.65625 167.140625 C 755.101562 172.871094 762 175.734375 770.351562 175.734375 C 778.703125 175.734375 785.648438 172.839844 791.195312 167.039062 C 796.746094 161.246094 799.507812 153.785156 799.507812 144.671875 C 799.507812 135.5625 796.785156 128.148438 791.339844 122.449219 C 785.890625 116.75 778.9375 113.90625 770.453125 113.90625 Z M 770.453125 113.90625 " fill-opacity="1" fill-rule="nonzero"/><path fill="#696969" d="M 845.230469 50.507812 L 871.898438 50.507812 L 871.898438 197.816406 L 845.230469 197.816406 Z M 845.230469 50.507812 " fill-opacity="1" fill-rule="nonzero"/><path fill="#696969" d="M 976.585938 91.53125 L 1003.253906 91.53125 L 1003.253906 197.816406 L 976.585938 197.816406 L 976.585938 186.578125 C 971.378906 191.527344 966.15625 195.09375 960.921875 197.269531 C 955.6875 199.445312 950.007812 200.539062 943.894531 200.539062 C 930.164062 200.539062 918.296875 195.214844 908.273438 184.574219 C 898.261719 173.921875 893.25 160.691406 893.25 144.867188 C 893.25 128.453125 898.101562 115.007812 907.789062 104.519531 C 917.476562 94.03125 929.253906 88.796875 943.113281 88.796875 C 949.492188 88.796875 955.464844 90 961.0625 92.410156 C 966.664062 94.820312 971.828125 98.433594 976.574219 103.253906 L 976.574219 91.53125 Z M 948.550781 113.417969 C 940.308594 113.417969 933.464844 116.335938 928.007812 122.15625 C 922.550781 127.988281 919.828125 135.460938 919.828125 144.570312 C 919.828125 153.753906 922.601562 161.308594 928.148438 167.230469 C 933.699219 173.152344 940.53125 176.121094 948.640625 176.121094 C 957.015625 176.121094 963.960938 173.203125 969.476562 167.382812 C 974.996094 161.550781 977.75 153.917969 977.75 144.480469 C 977.75 135.238281 974.984375 127.746094 969.476562 122.015625 C 963.960938 116.285156 956.984375 113.417969 948.550781 113.417969 Z M 948.550781 113.417969 " fill-opacity="1" fill-rule="nonzero"/><path fill="#696969" d="M 1025.980469 91.53125 L 1048.84375 91.53125 L 1048.84375 104.914062 C 1051.3125 99.640625 1054.601562 95.628906 1058.703125 92.898438 C 1062.804688 90.164062 1067.300781 88.796875 1072.179688 88.796875 C 1075.632812 88.796875 1079.246094 89.707031 1083.023438 91.53125 L 1074.71875 114.480469 C 1071.59375 112.921875 1069.019531 112.132812 1067.003906 112.132812 C 1062.90625 112.132812 1059.433594 114.675781 1056.597656 119.757812 C 1053.761719 124.839844 1052.34375 134.800781 1052.34375 149.644531 L 1052.445312 154.816406 L 1052.445312 197.796875 L 1025.972656 197.796875 L 1025.972656 91.53125 Z M 1025.980469 91.53125 " fill-opacity="1" fill-rule="nonzero"/></svg>