<?xml version="1.0" encoding="UTF-8"?>
<svg id="Camada_1" xmlns="http://www.w3.org/2000/svg" version="1.1" viewBox="0 0 133.79 129.7">
  <!-- Generator: Adobe Illustrator 29.1.0, SVG Export Plug-In . SVG Version: 2.1.0 Build 142)  -->
  <defs>
    <style>
      .st0 {
        fill: #f9b410;
      }
    </style>
  </defs>
  <path class="st0" d="M123.9,56.53l-21.29-38.94c-3.04-5.56-8.88-9.02-15.22-9.02h-27.95c-2.59,0-4.69,2.1-4.69,4.69v13.77c0,2.83,2.47,5.03,5.27,4.64,1.52-.21,3.15-.31,4.92-.31,18.76,0,32.86,11.3,32.86,32.71s-13.72,34.3-35.38,34.3c-9.95,0-19.52-2.26-26.44-6.12V18.03c0-2.38-3.16-3.27-4.36-1.22-.09.16-.18.32-.27.48L9.89,56.53c-2.84,5.19-2.84,11.46,0,16.64l21.29,38.94c3.04,5.56,8.88,9.02,15.22,9.02h40.99c6.34,0,12.18-3.46,15.22-9.02l21.29-38.94c2.84-5.19,2.84-11.46,0-16.64Z"/>
</svg>