<?xml version="1.0" encoding="UTF-8"?>
<svg id="Camada_1" data-name="Camada 1" xmlns="http://www.w3.org/2000/svg" viewBox="0 0 757.78 191.21">
  <defs>
    <style>
      .cls-1 {
        fill: #fff;
      }

      .cls-2 {
        fill: #ffc200;
      }
    </style>
  </defs>
  <path class="cls-2" d="M162.5,81.77l-26.28-48.06c-3.75-6.87-10.96-11.14-18.78-11.14h-34.49c-3.2,0-5.79,2.59-5.79,5.79v17c0,3.49,3.05,6.2,6.51,5.73,1.87-.26,3.88-.38,6.07-.38,23.15,0,40.56,13.95,40.56,40.36s-16.93,42.33-43.66,42.33c-12.28,0-24.09-2.79-32.63-7.55V34.26c0-2.93-3.9-4.03-5.39-1.51-.12.2-.23.39-.34.59l-26.48,48.42c-3.5,6.4-3.5,14.14,0,20.54l26.28,48.06c3.75,6.87,10.96,11.14,18.78,11.14h50.58c7.83,0,15.03-4.27,18.78-11.14l26.28-48.06c3.5-6.4,3.5-14.14,0-20.54Z"/>
  <g>
    <g>
      <path class="cls-1" d="M219.58,153.25c1.21,8.57-10.13,12.83-15.16,6.06-4.87-6.56.66-15.82,8.94-13.92,2.08.47,5.06,2.39,5.72,4.5.14.46-.08.33-.37.37-.67.09-1.5-.05-2.2,0-2.38-4.41-9.21-3.99-11.01.75-3.67,9.67,10.17,13.84,11.83,3.98h-6.98v-1.74h9.22Z"/>
      <path class="cls-1" d="M560.24,160.48v8.47h-1.99v-19.94h1.99s0,1.99,0,1.99c.78-.12,1.14-.87,1.82-1.29,3.09-1.91,7.49-.8,9.02,2.54,2.59,5.66-2.13,12.73-8.36,9.85-.94-.44-1.53-1.33-2.48-1.63ZM563.92,150.82c-4.53.76-4.94,8.77.05,9.8,7.23,1.49,7.53-11.07-.05-9.8Z"/>
      <path class="cls-1" d="M518.13,144.28v18.19h-2.24s0-2.24,0-2.24c-4.08,4.66-10.74,2.45-11.39-3.68-.73-6.9,6.78-10.54,11.39-5.29v-6.98h2.24ZM510.34,150.82c-5.41.92-4.64,10.69,1.66,9.88,5.69-.72,5.1-11.04-1.66-9.88Z"/>
      <path class="cls-1" d="M662.67,162.47h-2.24s0-2.24,0-2.24c-5.36,5.87-13.14.52-11.14-6.78,1.4-5.1,7.9-6.34,11.14-2.19v-2.24s2.25,0,2.25,0v13.46ZM654.87,150.82c-5.41.92-4.64,10.69,1.66,9.88,5.69-.72,5.1-11.04-1.66-9.88Z"/>
      <path class="cls-1" d="M544.29,162.47h-2.24s0-2.24,0-2.24c-5.36,5.87-13.14.52-11.14-6.78,1.4-5.1,7.9-6.34,11.14-2.19v-2.24s2.25,0,2.25,0v13.46ZM536.5,150.82c-5.41.92-4.64,10.69,1.66,9.88,5.69-.72,5.1-11.04-1.66-9.88Z"/>
      <path class="cls-1" d="M499.69,162.47h-2.24s0-2.24,0-2.24c-5.36,5.87-13.14.52-11.14-6.78,1.4-5.1,7.9-6.34,11.14-2.19v-2.24s2.25,0,2.25,0v13.46ZM491.9,150.82c-5.41.92-4.64,10.69,1.66,9.88,5.69-.72,5.1-11.04-1.66-9.88Z"/>
      <path class="cls-1" d="M279.39,162.47h-2.24s0-2.24,0-2.24c-5.36,5.87-13.14.52-11.14-6.78,1.4-5.1,7.9-6.34,11.14-2.19v-2.24s2.25,0,2.25,0v13.46ZM271.6,150.82c-5.41.92-4.64,10.69,1.66,9.88,5.69-.72,5.1-11.04-1.66-9.88Z"/>
      <path class="cls-1" d="M615.57,156.74c.57,4.44,6.47,5.74,8.39,1.48h2.08c-.14,2.69-3.12,4.39-5.6,4.51-8.64.41-9.64-12.59-1.64-13.85,3.38-.54,6.56,1.12,7.46,4.53.25.95.62,2.57-.1,3.34h-10.59ZM624.29,154.75c-.56-5.53-8.04-5.31-8.72,0h8.72Z"/>
      <path class="cls-1" d="M577.94,156.74c.57,4.44,6.47,5.74,8.39,1.48h2.08c-.14,2.69-3.12,4.39-5.6,4.51-8.64.41-9.64-12.59-1.64-13.85,3.38-.54,6.56,1.12,7.46,4.53.25.95.62,2.57-.1,3.34h-10.59ZM586.66,154.75c-.56-5.53-8.04-5.31-8.72,0h8.72Z"/>
      <path class="cls-1" d="M416.45,156.74c.57,4.44,6.47,5.74,8.39,1.48h2.08c-.14,2.69-3.12,4.39-5.6,4.51-8.64.41-9.64-12.59-1.64-13.85,3.38-.54,6.56,1.12,7.46,4.53.25.95.62,2.57-.1,3.34h-10.59ZM425.18,154.75c-.56-5.53-8.04-5.31-8.72,0h8.72Z"/>
      <path class="cls-1" d="M371.35,156.74c.57,4.44,6.47,5.74,8.39,1.48h2.08c-.14,2.69-3.12,4.39-5.6,4.51-8.64.41-9.64-12.59-1.64-13.85,3.38-.54,6.56,1.12,7.46,4.53.25.95.62,2.57-.1,3.34h-10.59ZM380.07,154.75c-.56-5.53-8.04-5.31-8.72,0h8.72Z"/>
      <path class="cls-1" d="M312.29,156.74c.57,4.44,6.47,5.74,8.39,1.48h2.08c-.14,2.69-3.12,4.39-5.6,4.51-8.64.41-9.64-12.59-1.64-13.85,3.38-.54,6.56,1.12,7.46,4.53.25.95.62,2.57-.1,3.34h-10.59ZM321.01,154.75c-.56-5.53-8.04-5.31-8.72,0h8.72Z"/>
      <path class="cls-1" d="M225.81,156.74c.57,4.44,6.47,5.74,8.39,1.48h2.08c-.14,2.69-3.12,4.39-5.6,4.51-8.64.41-9.64-12.59-1.64-13.85,3.38-.54,6.56,1.12,7.46,4.53.25.95.62,2.57-.1,3.34h-10.59ZM234.53,154.75c-.56-5.53-8.04-5.31-8.72,0h8.72Z"/>
      <path class="cls-1" d="M295.75,160.89c-3.35,3.18-9.42,2.18-11.07-2.33-2.16-5.92,2.73-11.51,8.84-9.34,4.65,1.65,5.71,8.37,2.23,11.68ZM290.04,150.82c-5.3.89-4.85,10.48,1.41,9.88,5.94-.57,5.3-11.01-1.41-9.88Z"/>
      <path class="cls-1" d="M456.33,145.28v1.99h-6.98v5.36l.37.32c.1,0,.19-.2.25-.2h5.61v1.99h-6.23v5.61l.37.32c.1,0,.19-.2.25-.2h6.35v1.99h-8.97v-17.2h8.97Z"/>
      <path class="cls-1" d="M399.01,162.47h-2.24v-8.85c0-.1-.51-1.16-.63-1.36-1.52-2.34-5.55-2.02-6.61.6-.08.2-.49,1.67-.49,1.76v7.85h-1.99v-13.46h1.99s.13,1.5.13,1.5c2.48-2.27,7-2.55,8.96.51.21.32.88,2.1.88,2.36v9.1Z"/>
      <path class="cls-1" d="M250.98,153l-2.2-.04c-.29-3.02-6.19-3.06-5.47.11.52,2.3,6.9,1.4,7.62,4.85,1.29,6.2-10.19,6.43-10.16.57l2.22.03c0,2.99,5.99,2.93,5.99.35s-7.16-1.75-7.9-5.29c-1.25-6.01,9.7-6.55,9.91-.57Z"/>
      <path class="cls-1" d="M471.28,153l-2.2-.04c-.29-3.02-6.19-3.06-5.47.11.52,2.3,6.9,1.4,7.62,4.85,1.29,6.2-10.19,6.43-10.16.57l2.22.03c0,2.99,5.99,2.93,5.99.35s-7.16-1.75-7.9-5.29c-1.25-6.01,9.7-6.55,9.91-.57Z"/>
      <path class="cls-1" d="M350.36,148.84c3.13-.37,6.05.91,7.03,4.05l-.41.57c-2.61.52-2-2.29-4.72-2.68-7.25-1.05-7.06,11.23.21,9.89,2.49-.46,2.36-3.94,4.9-2.29-.46,2.26-2.89,4.06-5.12,4.31-9.24,1.06-10.16-12.87-1.9-13.86Z"/>
      <path class="cls-1" d="M328.23,150.76l-1.51.14-.23-1.89h1.75c-.32-3.43,1.44-5.59,4.98-5.23v1.74c-2.23-.05-2.96,1.48-2.74,3.5h2.74s0,1.99,0,1.99h-2.74s0,11.46,0,11.46h-2.24v-11.71Z"/>
      <path class="cls-1" d="M604.85,150.76l-1.51.14-.23-1.89h1.75c-.32-3.43,1.44-5.59,4.98-5.23v1.74c-2.23-.05-2.96,1.48-2.74,3.5h2.74s0,1.99,0,1.99h-2.74s0,11.46,0,11.46h-2.24v-11.71Z"/>
      <path class="cls-1" d="M641.73,145.53v3.49h3.49v1.99c-.29.29-3.04-.42-3.49.12v7.97c0,1.7,2.33,1.42,3.49,1.37v2c-1.45-.05-3.64.3-4.74-.87-.12-.13-.74-1.18-.74-1.25v-9.22c-.4-.6-1.11.04-1.74-.12v-1.85s1.74-.14,1.74-.14v-3.49h1.99Z"/>
      <path class="cls-1" d="M478.75,145.53v3.49h3.49v1.99c-.29.29-3.04-.42-3.49.12v7.97c0,1.7,2.33,1.42,3.49,1.37v2c-1.45-.05-3.64.3-4.74-.87-.12-.13-.74-1.18-.74-1.25v-9.22c-.4-.6-1.11.04-1.74-.12v-1.85s1.74-.14,1.74-.14v-3.49h1.99Z"/>
      <path class="cls-1" d="M258.46,145.53v3.49h3.49v1.99c-.29.29-3.04-.42-3.49.12v7.97c0,1.7,2.33,1.42,3.49,1.37v2c-1.45-.05-3.64.3-4.74-.87-.12-.13-.74-1.18-.74-1.25v-9.22c-.4-.6-1.11.04-1.74-.12v-1.85s1.74-.14,1.74-.14v-3.49h1.99Z"/>
      <path class="cls-1" d="M406.98,145.53v3.49h3.49v1.99c-.29.29-3.04-.42-3.49.12v7.97c0,1.7,2.33,1.42,3.49,1.37v2c-1.45-.05-3.64.3-4.74-.87-.12-.13-.74-1.18-.74-1.25v-9.22c-.4-.6-1.11.04-1.74-.12v-1.85s1.74-.14,1.74-.14v-3.49h1.99Z"/>
      <path class="cls-1" d="M593.64,149.02h1.99c.17.16-.36,2.05.37,1.74,1.1-1.34,2.31-2.09,4.12-1.99v2.24c-1.64-.06-3.38.45-4.04,2.06-.08.19-.44,1.47-.44,1.55v7.85h-1.99v-13.46Z"/>
      <rect class="cls-1" x="523.86" y="149.02" width="1.99" height="13.46"/>
      <rect class="cls-1" x="631.52" y="149.02" width="1.99" height="13.46"/>
      <rect class="cls-1" x="337.7" y="149.02" width="1.99" height="13.46"/>
      <rect class="cls-1" x="362.13" y="149.02" width="1.99" height="13.46"/>
      <path class="cls-1" d="M275.16,144.84c.3-.17.86-.01,1.22-.05.15,1.46-1.25,2.91-2.75,2.62-1.08-.21-2.03-1.53-3.11-.98-.52.27-.36,1.34-1.77.9.15-1.77,1.29-2.91,3.13-2.49.73.16,1.17.99,2.09.99,1.07,0,.94-.84,1.19-.98Z"/>
      <path class="cls-1" d="M432.58,159.52c1.91-.29,2.32,3.07.15,3.14-1.76.05-2.1-2.84-.15-3.14Z"/>
      <g>
        <path class="cls-1" d="M682.59,51.6v43.91c0,2.29,1.43,5.98,2.67,7.93,5.89,9.24,18.33,8.84,27.91,7.27,1.96-.32,4.22-.79,6-1.57v-57.54h19.43v84.66c-3.94,30.56-41.31,38.68-65.64,27.36-.95-.44-5.45-2.88-5.85-3.5-.32-.51.48-1.73.76-2.27,1.96-3.82,4.44-7.41,6.19-11.35,7.62,3.96,15.88,6.38,24.59,5.8,8.4-.56,16.05-5.34,19.35-13.2.67-1.6,1.42-10.88,1.16-12.68-1.47.24-2.97.55-4.45.72-22.94,2.71-47.64-2.14-51.31-28.86l-.26-46.69h19.43Z"/>
        <path class="cls-1" d="M648.01,127.42c-8,1.98-16.1,3.78-24.34,4.55-17.71,1.65-47.81.54-49.57-23.09-2.17-29.22,33.83-31.36,54.49-26.87-.03-7.04-3.73-11.74-10.59-13.25-6.43-1.41-13.92-.46-20.13,1.57-2.61.85-5.04,2.27-7.6,3.08l-6.89-12.67c-.17-.3-.29-.6-.08-.93.44-.69,5.93-3.36,7.03-3.83,21.92-9.44,54.92-4.61,57.44,23.89.56,15.82.12,31.7.24,47.55ZM628.57,98.19c-7.89-1.13-16.84-2.48-24.75-.96-5.47,1.05-10.73,4.74-9.42,11.04,2.01,9.71,20.87,8.14,27.95,6.98,2.05-.34,4.08-.95,6.11-1.41l.12-15.64Z"/>
        <path class="cls-1" d="M498.66,74.95c-7.11-4.4-15.61-7.36-24.1-6.82-3.7.23-8.22,1.24-10.16,4.73-3.65,6.56,3.03,8.46,7.97,9.84,13.02,3.64,34.95,4.99,35.89,22.89.71,13.57-10.84,21.89-22.66,25.04-15.69,4.19-32.79,1.43-45.86-8.25l7.35-13.62c4.02,2.52,8.31,4.74,12.92,5.98,7.03,1.9,23.65,2.96,27.44-4.96,2.71-5.67-2.95-7.44-7.2-8.71-9.68-2.91-20.26-3.32-28.84-9.26-13.14-9.08-9.26-26.36,3.03-34.22,15.18-9.7,37.58-6.71,51.52,3.89l-7.3,13.47Z"/>
        <path class="cls-1" d="M542.35,23.55v28.51h24.02v16.19h-24.02v34.59c0,.66.57,2.88.8,3.64,3.23,10.79,17.41,10.84,25.57,5.89l4.39,14.82-.21.98c-8.73,4.25-17.89,5.29-27.43,3.4-14.89-2.96-22.42-13.68-23.23-28.47v-34.85h-13.06v-16.19h12.92l8.09-28.51h12.14Z"/>
        <path class="cls-1" d="M631.8,143.98c1.95-.35,2.5,2.46.89,2.94-2.27.67-2.81-2.59-.89-2.94Z"/>
        <path class="cls-1" d="M525.08,143.98c1.95-.35,2.5,2.46.89,2.94-2.27.67-2.81-2.59-.89-2.94Z"/>
      </g>
      <path class="cls-1" d="M362.79,143.77c1.96-.36,2.52,2.48.9,2.96-2.29.68-2.83-2.61-.9-2.96Z"/>
      <path class="cls-1" d="M338.36,143.77c1.96-.36,2.52,2.48.9,2.96-2.29.68-2.83-2.61-.9-2.96Z"/>
    </g>
    <g>
      <path class="cls-2" d="M277.35,91.08c0,25.5-17,41.22-42.51,41.22-12.03,0-22.78-2.57-32.24-7.38V24.35c3.21-.48,6.1-.8,9.14-.8s6.1.32,8.98.8v30.96c4.65-2.25,10.1-3.53,16.52-3.53,22.94,0,40.1,14.44,40.1,39.3ZM259.06,91.88c0-13.79-8.34-23.74-23.1-23.74-5.77,0-10.91,1.12-15.24,3.37v42.03c4.97,1.92,9.78,2.73,14.92,2.73,14.92,0,23.42-9.46,23.42-24.38Z"/>
      <path class="cls-2" d="M355.31,96.85h-53.73c1.44,12.51,9.14,20.21,21.82,20.21,11.07,0,17.48-4.33,22.46-7.86,4.01,2.57,7.22,7.7,7.86,12.35-6.42,5.13-16.36,10.75-31.6,10.75-22.78,0-39.14-15.08-39.14-39.94,0-23.58,16.52-40.58,38.18-40.58,20.37,0,34.81,13.96,34.81,34.33,0,4.01-.16,6.58-.64,10.75ZM338.15,84.82c0-8.98-4.65-18.13-17-18.29-11.23,0-18.13,7.86-19.41,18.29h36.41Z"/>
      <path class="cls-2" d="M433.75,96.85h-53.73c1.44,12.51,9.14,20.21,21.82,20.21,11.07,0,17.48-4.33,22.46-7.86,4.01,2.57,7.22,7.7,7.86,12.35-6.42,5.13-16.36,10.75-31.6,10.75-22.78,0-39.14-15.08-39.14-39.94,0-23.58,16.52-40.58,38.18-40.58,20.37,0,34.81,13.96,34.81,34.33,0,4.01-.16,6.58-.64,10.75ZM416.59,84.82c0-8.98-4.65-18.13-17-18.29-11.23,0-18.13,7.86-19.41,18.29h36.41Z"/>
    </g>
  </g>
</svg>