<?xml version="1.0" encoding="UTF-8"?>
<svg id="Camada_1" data-name="Camada 1" xmlns="http://www.w3.org/2000/svg" viewBox="0 0 757.78 191.21">
  <defs>
    <style>
      .cls-1 {
        fill: #ffc200;
      }

      .cls-2 {
        fill: #1d1e1c;
      }
    </style>
  </defs>
  <path class="cls-1" d="M177.22,82.72l-24.49-44.79c-3.5-6.4-10.21-10.38-17.5-10.38h-32.15c-2.98,0-5.39,2.42-5.39,5.39v15.84c0,3.25,2.84,5.78,6.07,5.34,1.74-.24,3.62-.36,5.66-.36,21.58,0,37.8,13,37.8,37.61s-15.78,39.45-40.69,39.45c-11.44,0-22.45-2.6-30.41-7.03V38.44c0-2.73-3.63-3.76-5.02-1.41-.11.18-.21.37-.31.55l-24.68,45.13c-3.26,5.96-3.26,13.18,0,19.14l24.49,44.79c3.5,6.4,10.21,10.38,17.5,10.38h47.14c7.29,0,14-3.98,17.5-10.38l24.49-44.79c3.26-5.96,3.26-13.18,0-19.14Z"/>
  <g>
    <g>
      <path d="M230.42,149.34c1.13,7.98-9.44,11.96-14.13,5.65-4.54-6.11.61-14.74,8.33-12.98,1.93.44,4.72,2.22,5.33,4.19.13.43-.08.31-.34.34-.63.08-1.39-.05-2.05,0-2.22-4.11-8.59-3.72-10.26.7-3.42,9.01,9.48,12.9,11.03,3.71h-6.5v-1.63h8.59Z"/>
      <path d="M547.91,156.08v7.9h-1.86v-18.58h1.86s0,1.86,0,1.86c.72-.11,1.06-.81,1.7-1.2,2.88-1.78,6.98-.75,8.4,2.37,2.41,5.28-1.99,11.87-7.79,9.18-.88-.41-1.43-1.24-2.31-1.52ZM551.33,147.08c-4.22.71-4.61,8.17.05,9.13,6.74,1.39,7.02-10.32-.05-9.13Z"/>
      <path d="M508.66,140.98v16.95h-2.09s0-2.09,0-2.09c-3.8,4.34-10.01,2.29-10.62-3.43-.68-6.43,6.32-9.82,10.62-4.93v-6.5h2.09ZM501.39,147.08c-5.04.86-4.32,9.96,1.55,9.21,5.3-.67,4.75-10.29-1.55-9.21Z"/>
      <path d="M643.36,157.94h-2.09s0-2.09,0-2.09c-5,5.47-12.25.48-10.38-6.32,1.31-4.75,7.36-5.91,10.38-2.04v-2.09s2.09,0,2.09,0v12.54ZM636.1,147.08c-5.04.86-4.32,9.96,1.55,9.21,5.3-.67,4.75-10.29-1.55-9.21Z"/>
      <path d="M533.04,157.94h-2.09s0-2.09,0-2.09c-5,5.47-12.25.48-10.38-6.32,1.31-4.75,7.36-5.91,10.38-2.04v-2.09s2.09,0,2.09,0v12.54ZM525.78,147.08c-5.04.86-4.32,9.96,1.55,9.21,5.3-.67,4.75-10.29-1.55-9.21Z"/>
      <path d="M491.47,157.94h-2.09s0-2.09,0-2.09c-5,5.47-12.25.48-10.38-6.32,1.31-4.75,7.36-5.91,10.38-2.04v-2.09s2.09,0,2.09,0v12.54ZM484.21,147.08c-5.04.86-4.32,9.96,1.55,9.21,5.3-.67,4.75-10.29-1.55-9.21Z"/>
      <path d="M286.16,157.94h-2.09s0-2.09,0-2.09c-5,5.47-12.25.48-10.38-6.32,1.31-4.75,7.36-5.91,10.38-2.04v-2.09s2.09,0,2.09,0v12.54ZM278.9,147.08c-5.04.86-4.32,9.96,1.55,9.21,5.3-.67,4.75-10.29-1.55-9.21Z"/>
      <path d="M599.47,152.59c.53,4.13,6.03,5.35,7.82,1.38h1.94c-.13,2.51-2.91,4.09-5.22,4.2-8.05.38-8.98-11.73-1.53-12.91,3.15-.5,6.12,1.04,6.95,4.22.23.88.58,2.4-.09,3.11h-9.87ZM607.59,150.74c-.52-5.16-7.49-4.95-8.13,0h8.13Z"/>
      <path d="M564.4,152.59c.53,4.13,6.03,5.35,7.82,1.38h1.94c-.13,2.51-2.91,4.09-5.22,4.2-8.05.38-8.98-11.73-1.53-12.91,3.15-.5,6.12,1.04,6.95,4.22.23.88.58,2.4-.09,3.11h-9.87ZM572.52,150.74c-.52-5.16-7.49-4.95-8.13,0h8.13Z"/>
      <path d="M413.9,152.59c.53,4.13,6.03,5.35,7.82,1.38h1.94c-.13,2.51-2.91,4.09-5.22,4.2-8.05.38-8.98-11.73-1.53-12.91,3.15-.5,6.12,1.04,6.95,4.22.23.88.58,2.4-.09,3.11h-9.87ZM422.03,150.74c-.52-5.16-7.49-4.95-8.13,0h8.13Z"/>
      <path d="M371.86,152.59c.53,4.13,6.03,5.35,7.82,1.38h1.94c-.13,2.51-2.91,4.09-5.22,4.2-8.05.38-8.98-11.73-1.53-12.91,3.15-.5,6.12,1.04,6.95,4.22.23.88.58,2.4-.09,3.11h-9.87ZM379.99,150.74c-.52-5.16-7.49-4.95-8.13,0h8.13Z"/>
      <path d="M316.82,152.59c.53,4.13,6.03,5.35,7.82,1.38h1.94c-.13,2.51-2.91,4.09-5.22,4.2-8.05.38-8.98-11.73-1.53-12.91,3.15-.5,6.12,1.04,6.95,4.22.23.88.58,2.4-.09,3.11h-9.87ZM324.95,150.74c-.52-5.16-7.49-4.95-8.13,0h8.13Z"/>
      <path d="M236.23,152.59c.53,4.13,6.03,5.35,7.82,1.38h1.94c-.13,2.51-2.91,4.09-5.22,4.2-8.05.38-8.98-11.73-1.53-12.91,3.15-.5,6.12,1.04,6.95,4.22.23.88.58,2.4-.09,3.11h-9.87ZM244.35,150.74c-.52-5.16-7.49-4.95-8.13,0h8.13Z"/>
      <path d="M301.41,156.46c-3.12,2.97-8.78,2.03-10.32-2.18-2.02-5.51,2.55-10.73,8.24-8.71,4.33,1.54,5.32,7.8,2.08,10.88ZM296.08,147.08c-4.94.83-4.52,9.77,1.31,9.21,5.54-.53,4.94-10.26-1.31-9.21Z"/>
      <path d="M451.06,141.91v1.86h-6.5v4.99l.35.3c.09,0,.17-.18.23-.18h5.23v1.86h-5.81v5.23l.35.3c.09,0,.17-.18.23-.18h5.92v1.86h-8.36v-16.03h8.36Z"/>
      <path d="M397.64,157.94h-2.09v-8.24c0-.1-.47-1.08-.59-1.27-1.42-2.18-5.17-1.88-6.16.56-.08.19-.45,1.55-.45,1.64v7.32h-1.86v-12.54h1.86s.12,1.4.12,1.4c2.31-2.12,6.52-2.37,8.35.47.19.3.82,1.96.82,2.2v8.48Z"/>
      <path d="M259.68,149.11l-2.05-.04c-.27-2.82-5.77-2.85-5.1.1.49,2.15,6.43,1.31,7.1,4.52,1.2,5.77-9.49,5.99-9.47.53l2.07.03c0,2.79,5.58,2.73,5.58.32s-6.68-1.63-7.36-4.93c-1.17-5.6,9.04-6.11,9.24-.53Z"/>
      <path d="M464.99,149.11l-2.05-.04c-.27-2.82-5.77-2.85-5.1.1.49,2.15,6.43,1.31,7.1,4.52,1.2,5.77-9.49,5.99-9.47.53l2.07.03c0,2.79,5.58,2.73,5.58.32s-6.68-1.63-7.36-4.93c-1.17-5.6,9.04-6.11,9.24-.53Z"/>
      <path d="M352.3,145.23c2.92-.35,5.64.85,6.56,3.78l-.39.53c-2.43.48-1.87-2.13-4.4-2.5-6.76-.98-6.58,10.47.2,9.22,2.33-.43,2.2-3.67,4.57-2.14-.43,2.1-2.69,3.78-4.77,4.02-8.61.99-9.47-12-1.77-12.91Z"/>
      <path d="M331.68,147.02l-1.41.13-.22-1.76h1.63c-.3-3.2,1.34-5.21,4.64-4.88v1.62c-2.07-.05-2.75,1.38-2.56,3.26h2.56s0,1.86,0,1.86h-2.56s0,10.68,0,10.68h-2.09v-10.92Z"/>
      <path d="M589.48,147.02l-1.41.13-.22-1.76h1.63c-.3-3.2,1.34-5.21,4.64-4.88v1.62c-2.07-.05-2.75,1.38-2.56,3.26h2.56s0,1.86,0,1.86h-2.56s0,10.68,0,10.68h-2.09v-10.92Z"/>
      <path d="M623.85,142.14v3.25h3.25v1.86c-.27.27-2.83-.39-3.25.11v7.43c0,1.59,2.17,1.32,3.25,1.28v1.86c-1.35-.04-3.39.28-4.42-.81-.12-.12-.69-1.1-.69-1.17v-8.59c-.38-.56-1.04.04-1.63-.12v-1.73s1.63-.13,1.63-.13v-3.25h1.86Z"/>
      <path d="M471.96,142.14v3.25h3.25v1.86c-.27.27-2.83-.39-3.25.11v7.43c0,1.59,2.17,1.32,3.25,1.28v1.86c-1.35-.04-3.39.28-4.42-.81-.12-.12-.69-1.1-.69-1.17v-8.59c-.38-.56-1.04.04-1.63-.12v-1.73s1.63-.13,1.63-.13v-3.25h1.86Z"/>
      <path d="M266.65,142.14v3.25h3.25v1.86c-.27.27-2.83-.39-3.25.11v7.43c0,1.59,2.17,1.32,3.25,1.28v1.86c-1.35-.04-3.39.28-4.42-.81-.12-.12-.69-1.1-.69-1.17v-8.59c-.38-.56-1.04.04-1.63-.12v-1.73s1.63-.13,1.63-.13v-3.25h1.86Z"/>
      <path d="M405.07,142.14v3.25h3.25v1.86c-.27.27-2.83-.39-3.25.11v7.43c0,1.59,2.17,1.32,3.25,1.28v1.86c-1.35-.04-3.39.28-4.42-.81-.12-.12-.69-1.1-.69-1.17v-8.59c-.38-.56-1.04.04-1.63-.12v-1.73s1.63-.13,1.63-.13v-3.25h1.86Z"/>
      <path d="M579.03,145.39h1.86c.15.15-.33,1.91.34,1.62,1.02-1.25,2.15-1.95,3.84-1.86v2.09c-1.53-.06-3.15.42-3.77,1.92-.07.17-.41,1.37-.41,1.44v7.32h-1.86v-12.54Z"/>
      <rect x="514" y="145.39" width="1.86" height="12.54"/>
      <rect x="614.33" y="145.39" width="1.86" height="12.54"/>
      <rect x="340.51" y="145.39" width="1.86" height="12.54"/>
      <rect x="363.27" y="145.39" width="1.86" height="12.54"/>
      <path d="M282.21,141.5c.28-.16.8-.01,1.14-.05.14,1.36-1.17,2.71-2.56,2.44-1.01-.19-1.89-1.43-2.9-.91-.49.25-.34,1.25-1.65.83.14-1.65,1.2-2.71,2.91-2.32.68.15,1.09.92,1.95.92,1,0,.88-.78,1.11-.92Z"/>
      <path d="M428.93,155.19c1.78-.27,2.16,2.86.14,2.92-1.64.05-1.95-2.65-.14-2.92Z"/>
      <g>
        <path class="cls-2" d="M661.93,54.6v40.93c0,2.13,1.33,5.57,2.49,7.39,5.49,8.61,17.08,8.24,26.01,6.77,1.83-.3,3.93-.73,5.59-1.46v-53.62h18.11v78.9c-3.67,28.49-38.5,36.05-61.17,25.5-.89-.41-5.08-2.68-5.45-3.26-.3-.47.45-1.61.71-2.12,1.82-3.56,4.14-6.91,5.77-10.58,7.1,3.69,14.8,5.95,22.92,5.41,7.83-.52,14.96-4.98,18.03-12.3.62-1.49,1.32-10.14,1.08-11.82-1.37.22-2.76.51-4.14.67-21.38,2.53-44.4-2-47.82-26.9l-.24-43.51h18.11Z"/>
        <path class="cls-2" d="M629.7,125.27c-7.45,1.85-15,3.53-22.68,4.24-16.5,1.54-44.56.5-46.2-21.52-2.03-27.23,31.53-29.23,50.78-25.04-.03-6.56-3.47-10.94-9.87-12.35-6-1.32-12.97-.43-18.76,1.46-2.43.79-4.7,2.12-7.09,2.87l-6.42-11.81c-.16-.28-.27-.56-.07-.87.41-.65,5.53-3.13,6.55-3.57,20.43-8.79,51.18-4.29,53.53,22.26.52,14.75.11,29.55.23,44.31ZM611.58,98.02c-7.35-1.05-15.7-2.31-23.07-.9-5.1.98-10,4.42-8.78,10.29,1.87,9.05,19.45,7.58,26.04,6.5,1.91-.31,3.81-.88,5.69-1.32l.11-14.58Z"/>
        <path class="cls-2" d="M490.51,76.37c-6.63-4.1-14.54-6.86-22.46-6.36-3.45.22-7.66,1.15-9.47,4.41-3.4,6.11,2.82,7.89,7.43,9.18,12.13,3.4,32.57,4.65,33.45,21.34.66,12.65-10.1,20.4-21.12,23.34-14.62,3.9-30.56,1.34-42.74-7.69l6.85-12.7c3.75,2.35,7.74,4.41,12.04,5.57,6.55,1.77,22.04,2.76,25.57-4.63,2.53-5.28-2.75-6.93-6.71-8.12-9.02-2.71-18.88-3.1-26.88-8.63-12.24-8.46-8.63-24.57,2.82-31.89,14.14-9.04,35.03-6.26,48.02,3.62l-6.8,12.56Z"/>
        <path class="cls-2" d="M531.23,28.46v26.57h22.39v15.09h-22.39v32.24c0,.61.53,2.68.74,3.39,3.01,10.06,16.23,10.1,23.83,5.49l4.1,13.81-.19.92c-8.14,3.97-16.68,4.93-25.56,3.17-13.88-2.76-20.89-12.75-21.65-26.53v-32.48h-12.17v-15.09h12.04l7.54-26.57h11.31Z"/>
        <path d="M614.6,140.7c1.81-.33,2.33,2.29.83,2.74-2.12.63-2.61-2.41-.83-2.74Z"/>
        <path d="M515.14,140.7c1.81-.33,2.33,2.29.83,2.74-2.12.63-2.61-2.41-.83-2.74Z"/>
      </g>
      <path d="M363.88,140.5c1.83-.33,2.35,2.31.84,2.76-2.13.63-2.64-2.43-.84-2.76Z"/>
      <path d="M341.12,140.5c1.83-.33,2.35,2.31.84,2.76-2.13.63-2.64-2.43-.84-2.76Z"/>
    </g>
    <g>
      <path class="cls-1" d="M284.25,91.4c0,23.77-15.85,38.42-39.62,38.42-11.21,0-21.23-2.39-30.05-6.88V29.21c2.99-.45,5.68-.75,8.52-.75s5.68.3,8.37.75v28.85c4.33-2.09,9.42-3.29,15.4-3.29,21.38,0,37.37,13.45,37.37,36.62ZM267.21,92.15c0-12.86-7.77-22.12-21.53-22.12-5.38,0-10.17,1.05-14.2,3.14v39.17c4.63,1.79,9.12,2.54,13.9,2.54,13.9,0,21.82-8.82,21.82-22.72Z"/>
      <path class="cls-1" d="M356.91,96.78h-50.08c1.35,11.66,8.52,18.84,20.33,18.84,10.31,0,16.29-4.04,20.93-7.33,3.74,2.39,6.73,7.18,7.32,11.51-5.98,4.78-15.25,10.02-29.45,10.02-21.23,0-36.47-14.05-36.47-37.22,0-21.97,15.4-37.82,35.58-37.82,18.99,0,32.44,13.01,32.44,31.99,0,3.74-.15,6.13-.6,10.02ZM340.92,85.57c0-8.37-4.33-16.89-15.85-17.04-10.46,0-16.89,7.32-18.09,17.04h33.93Z"/>
      <path class="cls-1" d="M430.02,96.78h-50.08c1.35,11.66,8.52,18.84,20.33,18.84,10.31,0,16.29-4.04,20.93-7.33,3.74,2.39,6.73,7.18,7.32,11.51-5.98,4.78-15.25,10.02-29.45,10.02-21.23,0-36.47-14.05-36.47-37.22,0-21.97,15.4-37.82,35.58-37.82,18.99,0,32.44,13.01,32.44,31.99,0,3.74-.15,6.13-.6,10.02ZM414.02,85.57c0-8.37-4.33-16.89-15.85-17.04-10.46,0-16.89,7.32-18.09,17.04h33.93Z"/>
    </g>
  </g>
</svg>